<?xml version="1.0" standalone="no"?>
<!DOCTYPE svg PUBLIC "-//W3C//DTD SVG 20010904//EN"
 "http://www.w3.org/TR/2001/REC-SVG-20010904/DTD/svg10.dtd">
<svg version="1.0" xmlns="http://www.w3.org/2000/svg"
 width="200.000000pt" height="80.000000pt" viewBox="0 0 200.000000 80.000000"
 preserveAspectRatio="xMidYMid meet">
<metadata>
Created by potrace 1.10, written by Peter Selinger 2001-2011
</metadata>
<g transform="translate(0.000000,80.000000) scale(0.100000,-0.100000)"
fill="#000000" stroke="none">
<path d="M989 756 c-26 -12 -38 -61 -21 -78 7 -7 3 -22 -10 -44 -15 -26 -27
-34 -49 -34 -22 0 -30 6 -35 25 -16 64 -109 87 -158 39 -28 -29 -35 -79 -16
-115 16 -28 68 -52 99 -44 30 8 71 43 71 62 0 10 20 13 79 13 73 0 80 -2 95
-25 12 -18 13 -30 6 -50 -22 -58 52 -103 93 -57 34 38 8 92 -45 92 -16 0 -28
8 -35 23 -10 22 -10 22 66 19 58 -3 80 -9 94 -23 50 -53 127 17 84 75 -24 33
-97 17 -97 -20 0 -10 -13 -14 -41 -14 -40 0 -41 1 -27 21 8 12 29 27 48 33 24
8 38 20 45 40 8 25 6 31 -18 52 -35 30 -39 30 -74 0 -26 -23 -27 -26 -16 -57
10 -27 10 -36 -4 -60 -17 -28 -21 -29 -90 -29 l-73 0 16 25 c9 14 26 25 39 25
44 0 70 57 43 92 -19 23 -42 28 -69 14z m59 -48 c-4 -26 -30 -43 -52 -35 -21
8 -21 53 1 66 25 13 55 -5 51 -31z m156 26 c20 -19 20 -38 1 -54 -18 -15 -45
-10 -59 12 -8 13 -6 22 8 37 23 25 30 26 50 5z m-365 -90 c24 -30 26 -43 10
-78 -34 -73 -139 -44 -139 38 0 63 89 90 129 40z m459 -46 c3 -23 -2 -29 -24
-34 -35 -9 -59 18 -43 48 16 30 63 21 67 -14z m-167 -94 c17 -21 0 -49 -31
-49 -31 0 -48 28 -31 49 8 9 21 16 31 16 10 0 23 -7 31 -16z"/>
<path d="M997 716 c-7 -16 1 -26 20 -26 7 0 13 9 13 20 0 23 -25 27 -33 6z"/>
<path d="M1167 724 c-14 -15 -6 -34 14 -34 14 0 19 5 17 17 -3 18 -20 27 -31
17z"/>
<path d="M758 639 c-21 -12 -24 -59 -6 -77 7 -7 21 -12 33 -12 46 0 62 57 23
84 -26 19 -27 19 -50 5z"/>
<path d="M1247 606 c-7 -16 1 -26 20 -26 7 0 13 9 13 20 0 23 -25 27 -33 6z"/>
<path d="M1093 503 c-21 -7 -15 -33 7 -33 11 0 20 6 20 14 0 18 -11 25 -27 19z"/>
<path d="M1522 238 c-6 -40 -14 -88 -18 -105 -6 -29 -4 -33 14 -33 14 0 22 8
24 22 4 31 26 34 38 4 12 -32 60 -38 60 -7 0 10 -7 22 -16 25 -13 5 -13 9 5
32 35 45 1 80 -51 53 -19 -10 -20 -9 -14 17 4 16 9 37 12 47 4 13 -1 17 -19
17 -23 0 -25 -5 -35 -72z m76 -50 c-5 -15 -48 -24 -48 -10 0 14 12 22 33 22
10 0 17 -5 15 -12z"/>
<path d="M93 285 c-20 -14 -43 -86 -43 -135 0 -51 89 -70 127 -28 11 13 23 33
25 45 5 18 1 22 -29 25 -33 4 -60 -11 -35 -20 23 -7 12 -32 -14 -32 -26 0 -27
1 -21 50 8 63 12 70 44 70 22 0 25 -4 21 -25 -4 -20 -1 -24 14 -21 20 3 38 22
38 43 0 39 -84 58 -127 28z"/>
<path d="M972 215 c-7 -47 -15 -92 -18 -100 -5 -11 1 -15 19 -15 26 0 37 27
37 91 0 40 16 36 24 -6 9 -46 35 -46 60 0 26 47 37 35 20 -22 -18 -61 -18 -63
10 -63 22 0 26 6 31 48 4 26 12 71 19 100 l13 52 -28 0 c-21 0 -33 -9 -56 -45
-15 -25 -31 -45 -34 -45 -4 0 -12 20 -18 45 -10 40 -14 45 -39 45 -27 0 -28
-2 -40 -85z"/>
<path d="M1859 270 c-24 -14 -46 -135 -29 -155 29 -35 120 -4 120 40 0 20 -12
19 -42 -5 -29 -22 -47 -11 -40 25 3 20 11 24 45 27 31 2 43 8 45 21 3 15 -2
17 -39 11 -42 -7 -42 -7 -35 19 7 29 1 32 -25 17z"/>
<path d="M249 219 c-15 -15 -19 -31 -17 -67 3 -40 6 -47 26 -50 13 -2 30 2 39
10 13 10 17 10 20 1 3 -7 16 -13 29 -13 17 0 24 6 24 20 0 11 -5 20 -11 20 -6
0 -8 8 -5 18 2 9 7 31 10 47 l6 30 -51 2 c-39 1 -56 -4 -70 -18z m71 -28 c0
-28 -21 -60 -35 -55 -15 6 -21 45 -8 57 10 10 43 8 43 -2z"/>
<path d="M401 177 c-14 -81 -14 -77 9 -77 19 0 26 14 32 70 2 18 10 26 26 28
22 3 23 1 17 -30 -3 -18 -9 -41 -11 -50 -4 -14 1 -18 19 -18 20 0 25 7 33 48
7 37 13 47 29 47 17 0 19 -6 16 -47 -2 -48 -2 -48 28 -48 24 0 31 4 31 20 0
11 -4 20 -10 20 -5 0 -9 21 -7 48 2 42 0 47 -21 50 -13 2 -30 -2 -38 -9 -11
-9 -18 -9 -26 -1 -15 15 -55 16 -63 2 -4 -7 -12 -7 -25 0 -10 5 -21 10 -23 10
-3 0 -10 -28 -16 -63z"/>
<path d="M675 215 c-30 -29 -35 -99 -9 -109 43 -16 104 4 104 35 0 13 -34 11
-47 -2 -14 -14 -33 -3 -33 18 0 12 10 14 45 11 45 -3 45 -3 45 28 0 50 -63 62
-105 19z"/>
<path d="M838 233 c-19 -5 -34 -45 -24 -62 4 -6 22 -13 41 -17 49 -9 32 -27
-17 -19 -35 6 -39 5 -36 -11 2 -15 14 -20 49 -22 80 -5 110 54 36 72 -20 5
-37 13 -37 18 0 15 31 21 43 9 15 -15 47 -14 47 2 0 31 -46 45 -102 30z"/>
<path d="M1217 222 c-19 -21 -30 -75 -22 -102 7 -21 58 -29 70 -10 4 6 13 5
24 -2 10 -6 26 -8 35 -5 17 7 22 37 6 37 -7 0 -8 17 -4 48 l6 47 -50 2 c-36 2
-54 -3 -65 -15z m63 -51 c0 -32 -23 -47 -40 -26 -8 10 -8 19 0 34 16 31 40 26
40 -8z"/>
<path d="M1379 238 c0 -2 -6 -33 -13 -70 -12 -67 -12 -68 10 -68 18 0 23 8 30
47 7 35 14 49 28 51 14 3 17 0 13 -12 -5 -11 -1 -16 13 -16 21 0 37 40 25 59
-8 14 -42 14 -50 1 -4 -7 -12 -7 -25 0 -18 10 -29 12 -31 8z"/>
<path d="M1709 233 c-25 -6 -41 -45 -37 -89 3 -38 4 -39 44 -42 40 -3 74 15
74 39 0 13 -34 11 -47 -2 -13 -13 -33 -4 -33 17 0 10 12 14 45 14 40 0 45 2
45 23 0 41 -34 56 -91 40z m49 -41 c2 -7 -7 -12 -23 -12 -24 0 -26 2 -15 15
14 17 31 16 38 -3z"/>
</g>
</svg>
